<svg width="33" height="33" viewBox="0 0 33 33" fill="none" xmlns="http://www.w3.org/2000/svg">
<path fill-rule="evenodd" clip-rule="evenodd" d="M3.39477 9.58239C3.49056 9.48635 3.60436 9.41016 3.72965 9.35817C3.85493 9.30618 3.98925 9.27942 4.12489 9.27942C4.26054 9.27942 4.39485 9.30618 4.52013 9.35817C4.64542 9.41016 4.75922 9.48635 4.85502 9.58239L16.4999 21.2293L28.1448 9.58239C28.2406 9.48651 28.3545 9.41045 28.4797 9.35856C28.605 9.30667 28.7393 9.27996 28.8749 9.27996C29.0105 9.27996 29.1448 9.30667 29.27 9.35856C29.3953 9.41045 29.5091 9.48651 29.605 9.58239C29.7009 9.67827 29.777 9.7921 29.8288 9.91737C29.8807 10.0426 29.9074 10.1769 29.9074 10.3125C29.9074 10.4481 29.8807 10.5824 29.8288 10.7077C29.777 10.8329 29.7009 10.9468 29.605 11.0426L17.23 23.4176C17.1342 23.5137 17.0204 23.5899 16.8951 23.6419C16.7698 23.6938 16.6355 23.7206 16.4999 23.7206C16.3642 23.7206 16.2299 23.6938 16.1046 23.6419C15.9794 23.5899 15.8656 23.5137 15.7698 23.4176L3.39477 11.0426C3.29873 10.9468 3.22253 10.833 3.17055 10.7078C3.11856 10.5825 3.0918 10.4482 3.0918 10.3125C3.0918 10.1769 3.11856 10.0426 3.17055 9.91727C3.22253 9.79198 3.29873 9.67818 3.39477 9.58239Z" fill="black"/>
</svg>
