<svg width="43" height="43" viewBox="0 0 43 43" fill="none" xmlns="http://www.w3.org/2000/svg">
<path d="M13.4375 8.06577V10.7533H38.9688V16.0733L35.9873 25.5345H12.5919L9.23257 1.34375H1.34375V4.03125H6.89243L10.2518 28.222H37.9582L41.6562 16.4866V8.06577H13.4375ZM14.8639 30.9351C13.4388 30.9368 12.0726 31.5036 11.065 32.5112C10.0573 33.5189 9.49051 34.8851 9.48889 36.3101C9.48889 37.7357 10.0552 39.1028 11.0632 40.1108C12.0712 41.1188 13.4384 41.6851 14.8639 41.6851C16.2894 41.6851 17.6566 41.1188 18.6646 40.1108C19.6726 39.1028 20.2389 37.7357 20.2389 36.3101C20.2373 34.8851 19.6705 33.5189 18.6628 32.5112C17.6552 31.5035 16.2889 30.9367 14.8639 30.9351ZM14.8639 38.9976C14.3324 38.9976 13.8128 38.84 13.3708 38.5447C12.9288 38.2494 12.5844 37.8297 12.381 37.3386C12.1776 36.8475 12.1243 36.3072 12.228 35.7858C12.3317 35.2645 12.5877 34.7856 12.9635 34.4098C13.3394 34.0339 13.8183 33.778 14.3396 33.6743C14.8609 33.5706 15.4013 33.6238 15.8924 33.8272C16.3834 34.0306 16.8032 34.3751 17.0985 34.817C17.3938 35.259 17.5514 35.7786 17.5514 36.3101C17.5505 37.0226 17.2671 37.7057 16.7633 38.2096C16.2595 38.7134 15.5764 38.9968 14.8639 38.9976ZM33.6764 30.9351C32.2514 30.9368 30.8851 31.5036 29.8775 32.5112C28.8698 33.5189 28.303 34.8851 28.3014 36.3101C28.3014 37.7357 28.8677 39.1028 29.8757 40.1108C30.8837 41.1188 32.2509 41.6851 33.6764 41.6851C35.1019 41.6851 36.4691 41.1188 37.4771 40.1108C38.4851 39.1028 39.0514 37.7357 39.0514 36.3101C39.0498 34.8851 38.483 33.5189 37.4753 32.5112C36.4677 31.5035 35.1014 30.9367 33.6764 30.9351ZM33.6764 38.9976C33.1449 38.9976 32.6253 38.84 32.1833 38.5447C31.7413 38.2494 31.3969 37.8297 31.1935 37.3386C30.9901 36.8475 30.9368 36.3072 31.0405 35.7858C31.1442 35.2645 31.4002 34.7856 31.776 34.4098C32.1519 34.0339 32.6308 33.778 33.1521 33.6743C33.6734 33.5706 34.2138 33.6238 34.7049 33.8272C35.1959 34.0306 35.6157 34.3751 35.911 34.817C36.2063 35.259 36.3639 35.7786 36.3639 36.3101C36.363 37.0226 36.0796 37.7057 35.5758 38.2096C35.072 38.7134 34.3889 38.9968 33.6764 38.9976Z" fill="white"/>
</svg>
