<svg width="31" height="44" viewBox="0 0 31 44" fill="none" xmlns="http://www.w3.org/2000/svg">
<path d="M6.81506 22.382L14.8921 38.4059C14.9642 38.5488 15.0593 38.6653 15.1694 38.7457C15.2795 38.8261 15.4016 38.8681 15.5254 38.8683H15.5273C15.6516 38.868 15.7741 38.8255 15.8845 38.7444C15.9949 38.6634 16.0901 38.5461 16.1622 38.4024L24.1872 22.3789C24.2701 22.2132 24.3193 22.0183 24.3293 21.8156C24.3393 21.6128 24.3098 21.4101 24.2439 21.2296C24.1784 21.0489 24.079 20.8974 23.9567 20.7917C23.8344 20.686 23.6939 20.6304 23.5507 20.6308H19.774L19.7743 6.2388C19.7743 6.09343 19.7542 5.94947 19.715 5.81516C19.6758 5.68084 19.6184 5.55881 19.5459 5.45603C19.4735 5.35326 19.3875 5.27176 19.2928 5.21619C19.1982 5.16063 19.0968 5.13209 18.9943 5.1322L12.0066 5.13264C11.9042 5.13258 11.8028 5.16118 11.7081 5.21679C11.6135 5.27241 11.5275 5.35395 11.455 5.45676C11.3826 5.55957 11.3251 5.68163 11.286 5.81597C11.2468 5.95031 11.2266 6.09429 11.2267 6.23968V20.6299H7.44901C7.15761 20.6299 6.89008 20.8631 6.75554 21.2314C6.68978 21.4123 6.66053 21.6155 6.67103 21.8186C6.68154 22.0216 6.73138 22.2166 6.81506 22.382Z" fill="black"/>
</svg>
