<svg width="32" height="44" viewBox="0 0 32 44" fill="none" xmlns="http://www.w3.org/2000/svg">
<path d="M2.74129 35.7775L10.8586 24.5025L15.2453 30.2775L20.6066 23.8334L23.5933 27.8374M29.3333 10.0834C29.3333 9.35403 29.1226 8.65456 28.7475 8.13883C28.3724 7.6231 27.8637 7.33337 27.3333 7.33337H4.66663C4.13619 7.33337 3.62749 7.6231 3.25241 8.13883C2.87734 8.65456 2.66663 9.35403 2.66663 10.0834V18.3334H29.3333V10.0834Z" stroke="black" stroke-width="4" stroke-linecap="round" stroke-linejoin="round"/>
<path d="M29.3333 16.5V33.9167C29.3333 34.6461 29.1226 35.3455 28.7475 35.8613C28.3724 36.377 27.8637 36.6667 27.3333 36.6667H7.99996M12.7413 12.8334H24.7413M7.40663 12.8334H8.73996M2.66663 16.5V24.75" stroke="black" stroke-width="4" stroke-linecap="round" stroke-linejoin="round"/>
</svg>
