<svg width="26" height="26" viewBox="0 0 26 26" fill="none" xmlns="http://www.w3.org/2000/svg">
<path d="M10.9201 11.765C10.9742 11.4075 11.0934 11.0933 11.2451 10.8225C11.3967 10.5516 11.6134 10.3241 11.8842 10.1508C12.1442 9.98829 12.4692 9.91246 12.8701 9.90163C13.1192 9.91246 13.3467 9.95579 13.5526 10.0425C13.7692 10.14 13.9642 10.27 14.1159 10.4325C14.2676 10.595 14.3867 10.79 14.4842 11.0066C14.5817 11.2233 14.6251 11.4616 14.6359 11.7H16.5751C16.5534 11.1908 16.4559 10.725 16.2717 10.3025C16.0876 9.87996 15.8384 9.51163 15.5134 9.20829C15.1884 8.90496 14.7984 8.66663 14.3434 8.49329C13.8884 8.31996 13.3901 8.24413 12.8376 8.24413C12.1334 8.24413 11.5159 8.36329 10.9959 8.61246C10.4759 8.86163 10.0426 9.18663 9.69591 9.60913C9.34925 10.0316 9.08925 10.5191 8.92675 11.0825C8.76425 11.6458 8.66675 12.2308 8.66675 12.8591V13.1516C8.66675 13.78 8.75341 14.365 8.91591 14.9283C9.07841 15.4916 9.33841 15.9791 9.68508 16.3908C10.0317 16.8025 10.4651 17.1383 10.9851 17.3766C11.5051 17.615 12.1226 17.745 12.8267 17.745C13.3359 17.745 13.8126 17.6583 14.2567 17.4958C14.7009 17.3333 15.0909 17.1058 15.4267 16.8133C15.7626 16.5208 16.0334 16.185 16.2284 15.795C16.4234 15.405 16.5426 14.9933 16.5534 14.5491H14.6142C14.6034 14.7766 14.5492 14.9825 14.4517 15.1775C14.3542 15.3725 14.2242 15.535 14.0617 15.6758C13.8992 15.8166 13.7151 15.925 13.4984 16.0008C13.2926 16.0766 13.0759 16.0983 12.8484 16.1091C12.4584 16.0983 12.1334 16.0225 11.8842 15.86C11.6134 15.6866 11.3967 15.4591 11.2451 15.1883C11.0934 14.9175 10.9742 14.5925 10.9201 14.235C10.8659 13.8775 10.8334 13.5091 10.8334 13.1516V12.8591C10.8334 12.48 10.8659 12.1225 10.9201 11.765ZM13.0001 2.16663C7.02008 2.16663 2.16675 7.01996 2.16675 13C2.16675 18.98 7.02008 23.8333 13.0001 23.8333C18.9801 23.8333 23.8334 18.98 23.8334 13C23.8334 7.01996 18.9801 2.16663 13.0001 2.16663ZM13.0001 21.6666C8.22258 21.6666 4.33341 17.7775 4.33341 13C4.33341 8.22246 8.22258 4.33329 13.0001 4.33329C17.7776 4.33329 21.6667 8.22246 21.6667 13C21.6667 17.7775 17.7776 21.6666 13.0001 21.6666Z" fill="white"/>
</svg>
