<svg width="50" height="50" viewBox="0 0 50 50" fill="none" xmlns="http://www.w3.org/2000/svg">
<path d="M20.8333 31.25L31.6458 25L20.8333 18.75V31.25ZM44.9166 14.9375C45.1875 15.9166 45.375 17.2291 45.5 18.8958C45.6458 20.5625 45.7083 22 45.7083 23.25L45.8333 25C45.8333 29.5625 45.5 32.9166 44.9166 35.0625C44.3958 36.9375 43.1875 38.1458 41.3125 38.6666C40.3333 38.9375 38.5416 39.125 35.7916 39.25C33.0833 39.3958 30.6041 39.4583 28.3125 39.4583L25 39.5833C16.2708 39.5833 10.8333 39.25 8.68746 38.6666C6.81246 38.1458 5.60413 36.9375 5.08329 35.0625C4.81246 34.0833 4.62496 32.7708 4.49996 31.1041C4.35413 29.4375 4.29163 28 4.29163 26.75L4.16663 25C4.16663 20.4375 4.49996 17.0833 5.08329 14.9375C5.60413 13.0625 6.81246 11.8541 8.68746 11.3333C9.66663 11.0625 11.4583 10.875 14.2083 10.75C16.9166 10.6041 19.3958 10.5416 21.6875 10.5416L25 10.4166C33.7291 10.4166 39.1666 10.75 41.3125 11.3333C43.1875 11.8541 44.3958 13.0625 44.9166 14.9375Z" fill="white"/>
</svg>
