<svg width="51" height="51" viewBox="0 0 51 51" fill="none" xmlns="http://www.w3.org/2000/svg">
<path d="M25.5 5.57812C21.5598 5.57812 17.7081 6.74652 14.432 8.93557C11.1559 11.1246 8.60244 14.236 7.0946 17.8762C5.58676 21.5165 5.19224 25.5221 5.96093 29.3866C6.72962 33.251 8.62699 36.8008 11.4131 39.5869C14.1992 42.373 17.749 44.2704 21.6134 45.0391C25.4779 45.8078 29.4835 45.4133 33.1238 43.9054C36.764 42.3976 39.8754 39.8441 42.0644 36.568C44.2535 33.2919 45.4219 29.4402 45.4219 25.5C45.4161 20.2182 43.3153 15.1543 39.5805 11.4195C35.8457 7.68469 30.7818 5.58393 25.5 5.57812ZM25.5 43.8281C21.875 43.8281 18.3315 42.7532 15.3174 40.7393C12.3034 38.7254 9.95424 35.8629 8.56703 32.5139C7.17982 29.1648 6.81686 25.4797 7.52405 21.9244C8.23125 18.3691 9.97683 15.1033 12.5401 12.5401C15.1033 9.97682 18.3691 8.23124 21.9244 7.52404C25.4797 6.81685 29.1649 7.17981 32.5139 8.56702C35.8629 9.95423 38.7254 12.3034 40.7393 15.3174C42.7532 18.3315 43.8281 21.875 43.8281 25.5C43.8229 30.3593 41.8902 35.0181 38.4541 38.4541C35.0181 41.8902 30.3593 43.8229 25.5 43.8281Z" fill="white"/>
<path d="M25.5 27.9253C28.9826 27.9253 31.8057 25.1021 31.8057 21.6195C31.8057 18.137 28.9826 15.3138 25.5 15.3138C22.0175 15.3138 19.1943 18.137 19.1943 21.6195C19.1943 25.1021 22.0175 27.9253 25.5 27.9253Z" stroke="white" stroke-width="1.5" stroke-linecap="round" stroke-linejoin="round"/>
<path d="M15.3138 37.6264C15.3138 32.7758 19.1943 27.9253 25.5 27.9253C31.8057 27.9253 35.6861 32.7758 35.6861 37.6264" stroke="white" stroke-width="1.5" stroke-linecap="round" stroke-linejoin="round"/>
</svg>
