<svg width="51" height="51" viewBox="0 0 51 51" fill="none" xmlns="http://www.w3.org/2000/svg">
<path d="M26.5412 21.828V20.8717H29.4036V34.306H27.7674C27.4435 34.3065 27.1326 34.1787 26.9028 33.9505C26.6729 33.7222 26.5429 33.4122 26.5412 33.0883C25.3465 33.963 23.9037 34.4356 22.423 34.4335C20.5729 34.4335 18.7986 33.6988 17.49 32.391C16.1814 31.0832 15.4456 29.3093 15.4445 27.4592C15.4456 25.6091 16.1814 23.8352 17.49 22.5274C18.7986 21.2196 20.5729 20.485 22.423 20.485C23.903 20.4833 25.347 20.9538 26.5412 21.828ZM14.7029 16.5537V16.9893C14.7029 17.8011 14.5945 18.4641 14.0654 19.2418L14.0016 19.3141C13.8253 19.5118 13.6539 19.7137 13.4874 19.9197L4.301 31.45H14.7029V33.082C14.7029 33.2429 14.6711 33.4022 14.6095 33.5509C14.5479 33.6995 14.4575 33.8345 14.3436 33.9482C14.2297 34.0619 14.0946 34.152 13.9458 34.2134C13.7971 34.2748 13.6377 34.3062 13.4768 34.306H0V33.5367C0 32.5953 0.23375 32.1746 0.53125 31.7368L10.3232 19.6137H0.408V16.5537H14.7029ZM32.8738 34.306C32.6032 34.306 32.3438 34.1985 32.1525 34.0072C31.9612 33.8159 31.8537 33.5565 31.8537 33.286V16.5537H34.9159V34.306H32.8738ZM43.9726 20.4C44.8952 20.3997 45.8088 20.5811 46.6612 20.9339C47.5137 21.2867 48.2883 21.8039 48.9409 22.4561C49.5934 23.1083 50.1111 23.8826 50.4644 24.7348C50.8177 25.587 50.9997 26.5005 51 27.4231C51.0003 28.3457 50.8188 29.2592 50.466 30.1117C50.1133 30.9641 49.596 31.7388 48.9439 32.3913C48.2917 33.0439 47.5174 33.5616 46.6652 33.9149C45.8129 34.2682 44.8994 34.4502 43.9769 34.4505C42.1137 34.451 40.3265 33.7114 39.0087 32.3943C37.6908 31.0772 36.9501 29.2905 36.9495 27.4273C36.9489 25.5641 37.6886 23.777 39.0056 22.4591C40.3227 21.1412 42.1094 20.4005 43.9726 20.4ZM22.4251 31.5626C22.972 31.575 23.5158 31.4781 24.0247 31.2774C24.5335 31.0767 24.9972 30.7764 25.3883 30.394C25.7795 30.0116 26.0903 29.555 26.3025 29.0508C26.5147 28.5466 26.624 28.0052 26.624 27.4581C26.624 26.9111 26.5147 26.3697 26.3025 25.8655C26.0903 25.3613 25.7795 24.9047 25.3883 24.5223C24.9972 24.1399 24.5335 23.8396 24.0247 23.6389C23.5158 23.4382 22.972 23.3413 22.4251 23.3537C21.3527 23.3781 20.3325 23.8213 19.5827 24.5883C18.8328 25.3554 18.413 26.3855 18.413 27.4581C18.413 28.5308 18.8328 29.5609 19.5827 30.328C20.3325 31.095 21.3527 31.5382 22.4251 31.5626ZM43.9726 31.5562C45.0688 31.5562 46.1201 31.1208 46.8952 30.3456C47.6703 29.5705 48.1058 28.5193 48.1058 27.4231C48.1058 26.3269 47.6703 25.2756 46.8952 24.5005C46.1201 23.7254 45.0688 23.29 43.9726 23.29C42.8765 23.29 41.8252 23.7254 41.0501 24.5005C40.275 25.2756 39.8395 26.3269 39.8395 27.4231C39.8395 28.5193 40.275 29.5705 41.0501 30.3456C41.8252 31.1208 42.8765 31.5562 43.9726 31.5562Z" fill="white"/>
</svg>
